<svg xmlns="http://www.w3.org/2000/svg" viewBox="0 0 173.99 46"><defs><style>.cls-1,.cls-4{isolation:isolate;}.cls-2{fill:#fff;}.cls-3{fill:#396;}.cls-4{fill:#333;opacity:0.24;}.cls-5{fill:#fefefe;}</style></defs><title>Layer 5 (2)</title><g id="Layer_2" data-name="Layer 2"><g id="Layer_5" data-name="Layer 5"><g class="cls-1"><path class="cls-2" d="M8,31.93A1.71,1.71,0,0,1,6.13,30V16.77A1.72,1.72,0,0,1,8,14.86h6.21c3.51,0,5.69,1.93,5.69,5a4.61,4.61,0,0,1-1,3,4.86,4.86,0,0,1,1.56,3.83c0,3.15-2.44,5.19-6.21,5.19Zm5.75-5.43a1.21,1.21,0,0,0,.34,0s0-.09,0-.21a.59.59,0,0,0,0-.2h0a2,2,0,0,0-.33,0H12.33v.48Zm-.41-5.89a1.35,1.35,0,0,0,.3,0,.45.45,0,0,1,0-.12.54.54,0,0,0,0-.17h0a2.46,2.46,0,0,0-.27,0H12.33v.34Z"/><path class="cls-3" d="M14.25,15.86c2.93,0,4.69,1.44,4.69,4A3.42,3.42,0,0,1,17.41,23v.08a3.62,3.62,0,0,1,2.14,3.65c0,2.73-2.22,4.19-5.21,4.19H8c-.67,0-.91-.23-.91-.89V16.77c0-.68.24-.91.91-.91h6.21m-2.92,5.75h2.06c.84,0,1.29-.32,1.29-1.15s-.45-1.19-1.29-1.19H11.33v2.34m0,5.89h2.46c.91,0,1.35-.36,1.35-1.25S14.7,25,13.79,25H11.33V27.5m2.92-13.64H8a2.7,2.7,0,0,0-2.91,2.91V30A2.71,2.71,0,0,0,8,32.93h6.3c4.31,0,7.21-2.49,7.21-6.19a6.06,6.06,0,0,0-1.28-3.95,5.94,5.94,0,0,0,.67-2.9c0-3.66-2.63-6-6.69-6Z"/><path class="cls-2" d="M31.27,31.93c-1.05,0-2.18-.19-2.55-1.64l-.25-.77H25.35l-.27.83c-.42,1.31-1.3,1.58-2.5,1.58H20.36a1.5,1.5,0,0,1-1.51-2.21l4.87-13.44a1.92,1.92,0,0,1,2-1.4h2.42a1.94,1.94,0,0,1,2,1.34l4.91,13.5a1.53,1.53,0,0,1-1.56,2.21Z"/><path class="cls-3" d="M28.18,15.88a1,1,0,0,1,1.1.7l4.9,13.48c.21.58,0,.87-.62.87H31.27c-1.1,0-1.42-.23-1.59-.89l-.48-1.52H24.62L24.13,30c-.21.66-.49.89-1.55.89H20.36c-.66,0-.79-.29-.57-.87l4.87-13.43c.21-.62.49-.75,1.1-.75h2.42m-2.59,9.31h2.65l-.78-2.48a13.06,13.06,0,0,1-.47-3h-.21a11.38,11.38,0,0,1-.4,3l-.79,2.5m2.59-11.31H25.76a2.9,2.9,0,0,0-3,2.09L17.91,29.38a2.57,2.57,0,0,0,.21,2.49,2.53,2.53,0,0,0,2.24,1.06h2.22A3.2,3.2,0,0,0,26,30.66l0-.14h1.66l0,.09a3.25,3.25,0,0,0,3.51,2.32h2.29a2.64,2.64,0,0,0,2.27-1.07,2.6,2.6,0,0,0,.22-2.49L31.16,15.9a2.93,2.93,0,0,0-3-2Z"/><path class="cls-2" d="M44.75,31.93A1.91,1.91,0,0,1,43,31.05L40.29,26.8V30a1.72,1.72,0,0,1-1.92,1.89H36.23A1.71,1.71,0,0,1,34.32,30V16.77a1.71,1.71,0,0,1,1.91-1.89h2.5a1.88,1.88,0,0,1,1.74.89l2.63,4.1v-3.1A1.7,1.7,0,0,1,45,14.88h2.16A1.72,1.72,0,0,1,49,16.77V30a1.72,1.72,0,0,1-1.89,1.89Z"/><path class="cls-3" d="M47.15,15.88c.66,0,.89.24.89.89V30c0,.66-.23.89-.89.89h-2.4a.87.87,0,0,1-.86-.42l-3.27-5a15,15,0,0,1-1.86-4.37h-.17a21.25,21.25,0,0,1,.7,5.47V30c0,.66-.24.89-.92.89H36.23c-.68,0-.91-.23-.91-.89V16.77c0-.65.23-.89.91-.89h2.5a.88.88,0,0,1,.89.43l3.48,5.42a21.32,21.32,0,0,1,1.78,3.88h.17a15,15,0,0,1-.95-5.36V16.77c0-.65.21-.89.89-.89h2.16m0-2H45a2.66,2.66,0,0,0-2.88,2.6l-.8-1.25a2.87,2.87,0,0,0-2.58-1.35h-2.5a2.72,2.72,0,0,0-2.91,2.89V30a2.71,2.71,0,0,0,2.91,2.89h2.14a2.7,2.7,0,0,0,2.91-2.75l.93,1.42a2.87,2.87,0,0,0,2.54,1.33h2.4A2.7,2.7,0,0,0,50,30V16.77a2.71,2.71,0,0,0-2.89-2.89Z"/></g><g id="Path_6" data-name="Path 6"><path class="cls-2" d="M67.89,31.93H66.37a1.9,1.9,0,0,1-2-1.56c-.17-.75-.36-1.48-.55-2.22-.09-.33-.17-.67-.26-1l-.27,1.07c-.18.69-.36,1.38-.53,2.08a2,2,0,0,1-2.14,1.64H57.89a2,2,0,0,1-2.14-1.65L52.17,16.79a.91.91,0,0,1-.16-.46c0-.09,0-.23,0-.34a1,1,0,0,1,.31-.73,2.07,2.07,0,0,1,1.43-.57h3.13a1.85,1.85,0,0,1,2,1.62l.56,3.13s.81-3.17.81-3.17a1.86,1.86,0,0,1,1.85-1.6H65.2a1.81,1.81,0,0,1,2,1.51c.16.69.35,1.38.53,2.07L68,19.55l.16-1c.12-.66.23-1.33.33-2a2,2,0,0,1,2.21-1.88H73.5a1.65,1.65,0,0,1,1.33.55,1.57,1.57,0,0,1,.19,1.4q-1.5,5.7-3,11.42c-.16.65-.34,1.29-.52,1.94l-.09.32a1.86,1.86,0,0,1-1.85,1.59h-.19C68.91,31.93,68.4,31.93,67.89,31.93Z"/><path class="cls-3" d="M62.08,15.69h3.11c.63,0,.88.17,1,.74.57,2.39,1.3,4.73,1.66,7.16.11.69.14,1.39.22,2.08,0,.07,0,.19.15.25,0-.48.11-.93.12-1.39a39.41,39.41,0,0,1,.62-4.6c.18-1.06.38-2.13.54-3.21.13-.8.37-1,1.23-1h2.73c.56,0,.71.18.57.69q-1.5,5.71-3,11.42c-.2.78-.42,1.55-.63,2.33a.88.88,0,0,1-.87.78H69.4c-.51,0-1,0-1.51,0s-1,0-1.5,0-.93-.23-1-.77c-.44-2-1-3.88-1.38-5.85a22.09,22.09,0,0,1-.25-2.58c0-.11.09-.32-.09-.34h0c-.18,0-.11.21-.12.31-.1,2.87-1,5.59-1.68,8.37-.15.64-.45.86-1.17.86H57.9c-.77,0-1-.2-1.18-.9L53.1,16.42c0-.07,0-.15-.1-.18V16a1.09,1.09,0,0,1,.74-.3h3.11c.62,0,.92.23,1,.79.39,2.19.8,4.36,1.13,6.54.14.86.11,1.72.18,2.59,0,.09,0,.21.08.26s.11-.16.11-.26a25.22,25.22,0,0,1,1-5.91l.83-3.24a.87.87,0,0,1,.87-.79m0-2a2.86,2.86,0,0,0-2.55,1.53,2.88,2.88,0,0,0-2.64-1.51H53.74a3.06,3.06,0,0,0-2.11.84A2,2,0,0,0,51,16c0,.15,0,.32,0,.44a2.12,2.12,0,0,0,.23.75l3.55,13.35a2.91,2.91,0,0,0,3.08,2.38h2.78a2.88,2.88,0,0,0,2.9-1.82,2.87,2.87,0,0,0,2.8,1.82c.51,0,1,0,1.54,0h1.63a2.86,2.86,0,0,0,2.83-2.37l.08-.29c.18-.65.35-1.29.52-2q1.53-5.68,3-11.41a2.47,2.47,0,0,0-.37-2.25,2.53,2.53,0,0,0-2.14-1H70.73a2.91,2.91,0,0,0-2.83,1.56,2.76,2.76,0,0,0-2.71-1.56H62.08Z"/></g><g id="Path_7" data-name="Path 7"><path class="cls-2" d="M117,31.93a.9.9,0,0,1-.28,0,6.71,6.71,0,0,0-.94-.21,4.66,4.66,0,0,1-4.27-4.52c-.09-1-.08-2.12-.07-3.16v-.35a1.77,1.77,0,0,1-1.49-.6,2.6,2.6,0,0,1-.35-1.73v-.41c0-.26,0-.51,0-.77a1.62,1.62,0,0,1,1.45-1.71l.38,0a5.28,5.28,0,0,1,.07-1.23A1.54,1.54,0,0,1,113,15.86h.1c.92,0,1.91,0,2.91,0h.09a1.57,1.57,0,0,1,1.57,1.41v.11a7.3,7.3,0,0,1,0,.81,1.7,1.7,0,0,1,0,.21h.37l.58,0a1.51,1.51,0,0,1,1.47,1.49,8.43,8.43,0,0,1,0,1c0,.19,0,.37,0,.56v.18a1.12,1.12,0,0,1,0,.31v.27a1.15,1.15,0,0,1-.07.36,1.84,1.84,0,0,1-1.58,1.15,6.34,6.34,0,0,1-.69.06V24c0,.68,0,1.36,0,2.05,0,0,0,.07.2.1h.39a1.63,1.63,0,0,1,1.7,1.76,17.32,17.32,0,0,0,0,2.05v.26a.76.76,0,0,1,0,.21,1.58,1.58,0,0,1-1.65,1.37c-.18,0-.54.05-.54.05Z"/><path class="cls-3" d="M116.14,16.85a.57.57,0,0,1,.57.51.2.2,0,0,1,0,.07c0,.24,0,.48,0,.71,0,.41-.14.93.07,1.17a.51.51,0,0,0,.4.12c.23,0,.51-.05.75-.05H118l.57,0c.35,0,.55.22.54.56.06.51,0,1,0,1.54,0,.15,0,.3,0,.44v.27a.82.82,0,0,1-.71.51,5.62,5.62,0,0,1-.92.07h-.26c-.29,0-.45.09-.45.38,0,1,0,2,0,2.95,0,.63.36.93,1,1a3.58,3.58,0,0,0,.48,0c.62.05.76.2.78.78a16.72,16.72,0,0,0,0,2.12v.17c-.08.36-.22.58-.68.58-.22,0-.65.05-.65.05l-.9,0a6.81,6.81,0,0,0-1.16-.25,3.65,3.65,0,0,1-3.33-3.56c-.11-1.36-.06-2.71-.06-4.07,0-.3-.06-.4-.42-.4h-.31c-1.12,0-1.12-.11-1.12-1.33,0-.4,0-.81,0-1.21a.63.63,0,0,1,.56-.68h.08l.33,0c.85,0,.85,0,.87-.86a4.4,4.4,0,0,1,0-1.2.54.54,0,0,1,.53-.48h3.11m0-2H113A2.55,2.55,0,0,0,110.52,17a4.26,4.26,0,0,0-.06.5,2.62,2.62,0,0,0-1.84,2.68v1.1a3.49,3.49,0,0,0,.56,2.34,2.36,2.36,0,0,0,1.28.86c0,.88,0,1.79.07,2.72a5.68,5.68,0,0,0,5.22,5.44,5.67,5.67,0,0,1,.7.17,1.87,1.87,0,0,0,.57.08h0l.89,0h.18s.29,0,.44,0a2.55,2.55,0,0,0,2.62-2.16,2,2,0,0,0,0-.42v-.17c0-.06,0-.12,0-.17a16.8,16.8,0,0,1,0-1.88.45.45,0,0,0,0-.11,2.58,2.58,0,0,0-2.31-2.7v-.54A2.81,2.81,0,0,0,121.09,23a2,2,0,0,0,.14-.73V22a2.12,2.12,0,0,0,0-.44.37.37,0,0,0,0-.11v-.49a9.85,9.85,0,0,0,0-1.06,2.48,2.48,0,0,0-2.33-2.42h-.09v-.09c0-.06,0-.13,0-.19a2.57,2.57,0,0,0-2.56-2.3Z"/></g><g id="Path_8" data-name="Path 8"><path class="cls-2" d="M87.31,31.93a1.65,1.65,0,0,1-1.85-1.67c0-.1,0-.24,0-.37V16a2.64,2.64,0,0,1,0-.29s0-.07,0-.11a1.52,1.52,0,0,1,1.44-1.57h3.22a1.52,1.52,0,0,1,1.52,1.33,3.12,3.12,0,0,1,0,.68V29.86c0,1.47-.62,2.07-2.13,2.07H87.31Z"/><path class="cls-3" d="M87,15.07h3.14a.52.52,0,0,1,.52.48,2.7,2.7,0,0,1,0,.49V29.86c0,.9-.17,1.07-1.13,1.07H87.32c-.65,0-.81-.15-.86-.76a2.11,2.11,0,0,1,0-.26V16c0-.14,0-.26,0-.4a.53.53,0,0,1,.5-.57h0m0-2h-.15a2.52,2.52,0,0,0-2.38,2.56h0c0,.13,0,.26,0,.39V29.91a4.21,4.21,0,0,0,0,.46,2.6,2.6,0,0,0,2.81,2.56h2.29c1.43,0,3.13-.53,3.13-3.07V16.07a3.78,3.78,0,0,0-.06-.82,2.51,2.51,0,0,0-2.5-2.18H87Z"/></g><g id="Path_9" data-name="Path 9"><path class="cls-2" d="M93.51,31.93a1.65,1.65,0,0,1-1.85-1.67c0-.1,0-.24,0-.37V16c0-.1,0-.2,0-.3s0-.07,0-.1a1.47,1.47,0,0,1,.4-1.06,1.49,1.49,0,0,1,1.06-.51h3.2a1.52,1.52,0,0,1,1.52,1.33,3.16,3.16,0,0,1,.05.68V29.86c0,1.47-.62,2.07-2.13,2.07H93.51Z"/><path class="cls-3" d="M93.21,15.07h3.13a.52.52,0,0,1,.52.48,2.7,2.7,0,0,1,0,.49V29.86c0,.9-.16,1.07-1.13,1.07H93.52c-.65,0-.81-.15-.86-.76a2.11,2.11,0,0,1,0-.26V16c0-.14,0-.26,0-.4a.54.54,0,0,1,.51-.57h0m0-2h-.12a2.52,2.52,0,0,0-2.42,2.56h0c0,.13,0,.26,0,.39V29.91a4.23,4.23,0,0,0,0,.47,2.6,2.6,0,0,0,2.81,2.55h2.29c1.43,0,3.13-.53,3.13-3.07V16.07a3.78,3.78,0,0,0-.06-.82,2.51,2.51,0,0,0-2.5-2.18H93.21Z"/></g><g id="Path_10" data-name="Path 10"><path class="cls-2" d="M103.38,31.93a6.61,6.61,0,0,1-1.75-.29,5.19,5.19,0,0,1-4.12-5,18,18,0,0,1,.1-3.8,5.32,5.32,0,0,1,4.85-4.47,9.32,9.32,0,0,1,1.65-.14,10.22,10.22,0,0,1,3,.47A5.3,5.3,0,0,1,110.92,24a14.18,14.18,0,0,1,0,1.45,1.88,1.88,0,0,1-1.1,1.56,1.6,1.6,0,0,1,.65.86,1.81,1.81,0,0,1-.28,1.54,5.4,5.4,0,0,1-3.6,2.31,6.69,6.69,0,0,1-1.55.2h-1.65Z"/><path class="cls-3" d="M104.11,19.22a9.18,9.18,0,0,1,2.75.43A4.29,4.29,0,0,1,109.92,24a13.66,13.66,0,0,1,0,1.43.86.86,0,0,1-.78.78,5.29,5.29,0,0,1-.8.06h-5.21c-.28,0-.4,0-.4.35a1.38,1.38,0,0,0,1.5,1.48,2.89,2.89,0,0,0,.56-.06,2.08,2.08,0,0,0,1.31-.8.76.76,0,0,1,.65-.35.77.77,0,0,1,.35.08c.64.27,1.28.49,1.9.77s.68.64.34,1.19a4.41,4.41,0,0,1-2.91,1.85,6.64,6.64,0,0,1-1.41.18h-1.63a5.75,5.75,0,0,1-1.49-.26,4.23,4.23,0,0,1-3.38-4.06A17.83,17.83,0,0,1,98.6,23a4.34,4.34,0,0,1,3.94-3.6,9.16,9.16,0,0,1,1.57-.14M103,23.67h.1l.64,0h1.68c.18,0,.24,0,.27-.21,0-.82-.43-1.33-1.34-1.38h-.16c-.92,0-1.43.43-1.47,1.21,0,.26,0,.41.28.41m1.12-6.45a11.08,11.08,0,0,0-1.82.15,6.33,6.33,0,0,0-5.66,5.26.22.22,0,0,0,0,.08,19.88,19.88,0,0,0-.11,4,6.2,6.2,0,0,0,4.87,5.89,8.29,8.29,0,0,0,1.91.32H105a7.69,7.69,0,0,0,1.82-.23A6.39,6.39,0,0,0,111,30L111,30a2.82,2.82,0,0,0,.38-2.36,2.48,2.48,0,0,0-.18-.43,2.78,2.78,0,0,0,.66-1.58v-.06c0-.52,0-1,0-1.56a6.29,6.29,0,0,0-4.49-6.23,11.18,11.18,0,0,0-3.32-.51Z"/></g><g id="Path_11" data-name="Path 11"><path class="cls-2" d="M78,31.93a7.68,7.68,0,0,1-1.74-.23c-2.57-.59-3.63-2.07-3.42-4.8a3.65,3.65,0,0,1,1.92-3.18l-.52-.22a1.62,1.62,0,0,1-.86-2.5,5.32,5.32,0,0,1,4.12-2.61,10,10,0,0,1,1.79-.15,10.8,10.8,0,0,1,2.53.3A4.58,4.58,0,0,1,85.55,23c.08,1.51.06,3.08,0,4.59,0,.57,0,1.13,0,1.7a2,2,0,0,1-1.55,2,12.74,12.74,0,0,1-3.25.56H78Z"/><path class="cls-3" d="M79.28,19.24a10,10,0,0,1,2.3.27,3.61,3.61,0,0,1,3,3.53c.1,2.09,0,4.18,0,6.27a1.08,1.08,0,0,1-.88,1.11,12,12,0,0,1-3,.5H78a6.86,6.86,0,0,1-1.5-.2c-2.09-.48-2.83-1.5-2.66-3.75.14-1.82,1.17-2.59,3.06-2.89a16.56,16.56,0,0,1,2.43-.18l.71,0h.06c.24,0,.32-.08.31-.34,0-.45,0-.94-.49-1.17a1.91,1.91,0,0,0-.78-.16,1.86,1.86,0,0,0-1,.28,2.06,2.06,0,0,0-.45.38c-.32.33-.5.47-.75.47a2.09,2.09,0,0,1-.64-.16c-.56-.2-1.12-.41-1.66-.64S74,22,74.25,21.48a4.32,4.32,0,0,1,3.32-2.1,9.86,9.86,0,0,1,1.71-.14m-.5,7.36h-.13a.8.8,0,0,0-.69.89c0,.52.29.78.87.81H80c.3,0,.41-.12.41-.44,0-1.07,0-1.32-.69-1.32-.21,0-.48,0-.83.05h-.1m.5-9.36a11.81,11.81,0,0,0-2,.16,6.28,6.28,0,0,0-4.78,3.06l0,.06a2.78,2.78,0,0,0-.27,2.29A2.5,2.5,0,0,0,73,23.89a4.9,4.9,0,0,0-1.12,2.94C71.58,30.05,73,32,76,32.68a9.06,9.06,0,0,0,1.89.25h2.93a13.7,13.7,0,0,0,3.42-.59l.09,0a3.06,3.06,0,0,0,2.21-3c0-.52,0-1.09,0-1.65,0-1.51,0-3.08,0-4.64A5.62,5.62,0,0,0,82,17.55a11.8,11.8,0,0,0-2.71-.31Z"/></g><g id="Path_1227" data-name="Path 1227"><path class="cls-2" d="M3,31.93a1.39,1.39,0,0,1-1.54-1.46V23.24A1.39,1.39,0,0,1,3,21.78H4.56a1.39,1.39,0,0,1,1.53,1.46v7.23a1.38,1.38,0,0,1-1.53,1.46Z"/><path class="cls-3" d="M4.56,22.78c.4,0,.53.12.53.46v7.23c0,.35-.13.46-.53.46H3c-.41,0-.54-.11-.54-.46V23.24c0-.34.13-.46.54-.46H4.56m0-2H3A2.39,2.39,0,0,0,.44,23.24v7.23A2.39,2.39,0,0,0,3,32.93H4.56a2.39,2.39,0,0,0,2.53-2.46V23.24a2.39,2.39,0,0,0-2.53-2.46Z"/></g><g id="Ellipse_14" data-name="Ellipse 14"><path class="cls-2" d="M3.77,22.83a2.77,2.77,0,1,1,2.76-2.76A2.77,2.77,0,0,1,3.77,22.83Z"/><path class="cls-3" d="M3.77,18.3A1.77,1.77,0,1,1,2,20.07,1.76,1.76,0,0,1,3.77,18.3m0-2a3.77,3.77,0,1,0,3.76,3.77A3.77,3.77,0,0,0,3.77,16.3Z"/></g><ellipse id="Ellipse_1" data-name="Ellipse 1" class="cls-3" cx="150.96" cy="23.02" rx="21.81" ry="21.96"/><path id="Sombra" class="cls-4" d="M173.41,23V23c-.07,0,0,.06,0,.1s0,.2,0,.3l-.09,1.06c0,.33-.06.66-.11,1s-.11.86-.18,1.29-.08.62-.16.93c-.13.49-.3,1-.46,1.43s-.31,1-.48,1.5a13.24,13.24,0,0,1-.67,1.82c-.46.92-1,1.82-1.51,2.7a19.39,19.39,0,0,1-3,3.65c-.63.6-1.29,1.17-2,1.72a31.33,31.33,0,0,1-3,2.13c-.06,0-.14.06-.16.13h-.11a.12.12,0,0,0-.08,0c-.9-.26-1.79-.55-2.67-.84q-3.1-1-6.18-2.13c-1.08-.39-2.15-.8-3.22-1.21l-2.92-1.19c-1-.43-2-.86-3-1.33-.47-.21-.91-.47-1.39-.69a6.24,6.24,0,0,1-1.35-.93,4.84,4.84,0,0,1-1.39-2.53,5.36,5.36,0,0,1-.11-1v-17c.07,0,.07-.07.09-.11a10,10,0,0,1,.85-1.45A4.58,4.58,0,0,1,142,10.73a4.4,4.4,0,0,0,.5-.21h18.57c0,.05,0,.05.08.07a2.15,2.15,0,0,1,.27.1l2.92,1,4.24,1.53,3.16,1.13a.16.16,0,0,1,.11.13c.37,1.31.72,2.62,1,3.95a13.36,13.36,0,0,1,.42,2.34s0,.06,0,.07V21a0,0,0,0,0,0,0v1.83S173.38,22.94,173.41,23Z"/><path id="Path_1" data-name="Path 1" class="cls-2" d="M151,46a23,23,0,0,1-23-23v0A23,23,0,0,1,151,0h0a23,23,0,0,1,23,23v0a23,23,0,0,1-14,21.19A22.6,22.6,0,0,1,151,46Zm0-44.81a21.82,21.82,0,1,0,15.45,6.39A21.81,21.81,0,0,0,151,1.19Z"/><path id="Path_2" data-name="Path 2" class="cls-2" d="M151.86,10.53h8.44a2.19,2.19,0,0,1,2.24,2.16v.09c0,2.28,0,4.57,0,6.85a.77.77,0,0,0,.29.66A5.73,5.73,0,0,1,165,25.48a5.52,5.52,0,0,1-2,3.87,1,1,0,0,0-.41.91,4.66,4.66,0,0,1-.71,3.19,4.38,4.38,0,0,1-3.74,2c-4.82,0-9.65,0-14.48,0a4.61,4.61,0,0,1-4.41-4.41c0-5.42,0-10.82,0-16.24a4.34,4.34,0,0,1,4.41-4.28h8.28Zm9,19.3h-.42c-2.17,0-4.34,0-6.51,0a4.12,4.12,0,0,1-4.17-4.06h0a4,4,0,0,1,3.85-4c2.25,0,4.51,0,6.77,0h.45a.75.75,0,0,0,.05-.16c0-.45,0-.88,0-1.33,0-.71-.17-.87-.89-.87H143.86a4.74,4.74,0,0,1-2.7-.82l-.3-.16c0,4.21,0,8.37,0,12.52a2.87,2.87,0,0,0,2.84,2.9h.18q7.07,0,14.13,0a2.71,2.71,0,0,0,1.61-.49c1.25-.87,1.31-2.11,1.19-3.5Zm0-12.09c0-1.71,0-3.39,0-5.07,0-.14-.23-.33-.4-.42a1.28,1.28,0,0,0-.55-.06H144c-.29,0-.57,0-.86.05A2.76,2.76,0,0,0,141,14.59,3.07,3.07,0,0,0,144,17.82h15.13c.55,0,1.11,0,1.69-.07Zm1.7,4.55a2,2,0,0,1-2,1.12c-1.57,0-3.14,0-4.71,0-.82,0-1.65,0-2.47.05a2.25,2.25,0,0,0-2,2.49,1.1,1.1,0,0,0,0,.18,2.49,2.49,0,0,0,2.55,2c2.31,0,4.62-.08,6.93,0a1.87,1.87,0,0,0,2-1.33c0-.1.1-.2.14-.31a4.48,4.48,0,0,0-.53-4.26Z"/><path id="Path_3" data-name="Path 3" class="cls-2" d="M155.38,25.71a1.57,1.57,0,0,1-1.55,1.6h0a1.63,1.63,0,1,1,0-3.26,1.57,1.57,0,0,1,1.62,1.51A.38.38,0,0,1,155.38,25.71Z"/><path id="Path_4" data-name="Path 4" class="cls-5" d="M159.3,12.81s0,0,0,0Z"/><path id="Path_5" data-name="Path 5" class="cls-5" d="M159.3,13.82s0,0,0,0Z"/></g></g></svg>