<svg xmlns="http://www.w3.org/2000/svg" xmlns:xlink="http://www.w3.org/1999/xlink" viewBox="205 84 190 150">
  <defs>
    <style>
      .cls-1 {
        clip-path: url(#clip-Accesible);
      }

      .cls-2 {
        fill: #396;
      }

      .cls-3 {
        opacity: 0.2;
      }

      .cls-4 {
        fill: #605a5a;
      }

      .cls-5 {
        fill: #353333;
      }

      .cls-6 {
        fill: #fff;
      }

      .cls-7 {
        fill: #e9eff4;
      }

      .cls-8 {
        fill: #272525;
      }

      .cls-9 {
        fill: #31bafd;
      }

      .cls-10 {
        fill: #2b9ed8;
      }

      .cls-11 {
        fill: #d0d1d3;
      }

      .cls-12 {
        fill: #fed8b2;
      }

      .cls-13 {
        fill: #e8c4a3;
      }

      .cls-14 {
        fill: #f4e3c3;
      }

      .cls-15 {
        fill: #59595b;
      }

      .cls-16 {
        fill: #ffd300;
      }

      .cls-17 {
        fill: #f9b54c;
      }

      .cls-18 {
        fill: #324a5e;
      }

      .cls-19 {
        fill: #2b3b4e;
      }

      .cls-20 {
        fill: #3e5768;
      }

      .cls-21 {
        fill: #f4a200;
      }

      .cls-22 {
        fill: #a6a8aa;
      }
    </style>
    <clipPath id="clip-Accesible">
      <rect x="205" y="84" width="190" height="150"/>
    </clipPath>
  </defs>
  <g id="Accesible" class="cls-1">
    <rect class="cls-6" x="205" y="84" width="190" height="150"/>
    <g id="_001-laptop" data-name="001-laptop" transform="translate(224.969 84.002)">
      <circle id="Ellipse_1" data-name="Ellipse 1" class="cls-2" cx="74.999" cy="74.999" r="74.999" transform="translate(0)"/>
      <path id="Path_1" data-name="Path 1" class="cls-3" d="M212.291,183.564l-35.418-35.418-48.395,50.465L88.241,212.7l41.673,41.673q3.689.365,7.475.37A75,75,0,0,0,212.291,183.564Z" transform="translate(-62.39 -104.745)"/>
      <path id="Path_2" data-name="Path 2" class="cls-4" d="M197.111,200.554H113.779V148.871a6.649,6.649,0,0,1,6.649-6.649h70.033a6.65,6.65,0,0,1,6.65,6.649v51.683Z" transform="translate(-80.446 -100.556)"/>
      <path id="Path_3" data-name="Path 3" class="cls-5" d="M296.955,148.872a6.65,6.65,0,0,0-6.65-6.65H254.994v58.332h41.961Z" transform="translate(-180.29 -100.556)"/>
      <rect id="Rectangle_1" data-name="Rectangle 1" class="cls-6" width="74.746" height="57.07" transform="translate(37.626 46.464)"/>
      <rect id="Rectangle_2" data-name="Rectangle 2" class="cls-7" width="37.666" height="57.07" transform="translate(74.706 46.464)"/>
      <path id="Path_4" data-name="Path 4" class="cls-5" d="M181.964,341.891H88.7a3.367,3.367,0,0,1-3.367-3.367v-5.892a3.367,3.367,0,0,1,3.367-3.367h93.265a3.367,3.367,0,0,1,3.367,3.367v5.892A3.367,3.367,0,0,1,181.964,341.891Z" transform="translate(-60.334 -232.802)"/>
      <path id="Path_5" data-name="Path 5" class="cls-8" d="M301.921,329.266H254.994v12.626h46.927a3.367,3.367,0,0,0,3.367-3.367v-5.892A3.367,3.367,0,0,0,301.921,329.266Z" transform="translate(-180.29 -232.803)"/>
      <path id="Path_6" data-name="Path 6" class="cls-9" d="M248.367,201.2h23.527a1.638,1.638,0,0,1,1.638,1.638v12.806a1.638,1.638,0,0,1-1.638,1.638h-15.5l-4.305,4.3v-4.3h-3.722a1.638,1.638,0,0,1-1.638-1.638V202.84A1.638,1.638,0,0,1,248.367,201.2Z" transform="translate(-174.447 -142.257)"/>
      <path id="Path_7" data-name="Path 7" class="cls-10" d="M304.554,201.2H292.921v16.082h11.633a1.638,1.638,0,0,0,1.638-1.638V202.84A1.638,1.638,0,0,0,304.554,201.2Z" transform="translate(-207.106 -142.257)"/>
      <path id="Path_8" data-name="Path 8" class="cls-6" d="M173.319,271.678H147.188v-4.429a7.314,7.314,0,0,1,5-6.938l4.8-1.6h6.533l4.8,1.6a7.314,7.314,0,0,1,5,6.938v4.429Z" transform="translate(-104.068 -182.918)"/>
      <path id="Path_9" data-name="Path 9" class="cls-11" d="M204.444,267.249a7.314,7.314,0,0,0-5-6.938l-4.8-1.6H191.21v12.967h13.233v-4.429Z" transform="translate(-135.193 -182.918)"/>
      <path id="Path_10" data-name="Path 10" class="cls-12" d="M187.168,250.828l-3.267,3.266-3.267-3.266v-3.267h6.533Z" transform="translate(-127.716 -175.035)"/>
      <path id="Path_11" data-name="Path 11" class="cls-13" d="M191.211,247.561v6.365l.168.168,3.266-3.266v-3.267Z" transform="translate(-135.193 -175.035)"/>
      <path id="Path_12" data-name="Path 12" class="cls-14" d="M169.487,209.5a6.533,6.533,0,0,1,13.066,0c0,3.608-2.925,9.8-6.533,9.8S169.487,213.1,169.487,209.5Z" transform="translate(-119.834 -143.503)"/>
      <path id="Path_13" data-name="Path 13" class="cls-12" d="M191.379,202.964c-.057,0-.112.007-.168.008v16.314c.056,0,.112.009.168.009,3.608,0,6.533-6.191,6.533-9.8A6.533,6.533,0,0,0,191.379,202.964Z" transform="translate(-135.193 -143.503)"/>
      <path id="Path_14" data-name="Path 14" class="cls-15" d="M182.552,209.5a6.533,6.533,0,1,0-13.066,0,12.7,12.7,0,0,0,1.256,5,9.012,9.012,0,0,1-.038-2.742,26.174,26.174,0,0,0,8.148-2.265,4.993,4.993,0,0,0,2.406,1.759,9.474,9.474,0,0,1,.036,3.252A12.7,12.7,0,0,0,182.552,209.5Z" transform="translate(-119.833 -143.503)"/>
      <path id="Path_15" data-name="Path 15" class="cls-8" d="M197.912,209.5a6.533,6.533,0,0,0-6.533-6.533c-.057,0-.112.007-.168.008v7.684a26.6,26.6,0,0,0,3-1.172,4.993,4.993,0,0,0,2.406,1.759,9.474,9.474,0,0,1,.036,3.252A12.7,12.7,0,0,0,197.912,209.5Z" transform="translate(-135.193 -143.503)"/>
      <path id="Path_16" data-name="Path 16" class="cls-16" d="M187.1,282.071l.916-8.5h.916l.916,8.5Z" transform="translate(-132.284 -193.425)"/>
      <path id="Path_17" data-name="Path 17" class="cls-17" d="M191.837,273.572h-.626v8.5h1.542Z" transform="translate(-135.193 -193.425)"/>
      <path id="Path_18" data-name="Path 18" class="cls-18" d="M155.491,260.411l-3.3,1.1a7.314,7.314,0,0,0-5,6.938v4.429h12.9v-.55Z" transform="translate(-104.066 -184.12)"/>
      <path id="Path_19" data-name="Path 19" class="cls-19" d="M204.444,268.451a7.314,7.314,0,0,0-5-6.938l-3.3-1.1-4.761,12.354-.168-.436v.55h13.233v-4.429Z" transform="translate(-135.193 -184.12)"/>
      <path id="Path_20" data-name="Path 20" class="cls-18" d="M196.546,260.411l.9,3.856-1.716.858,1.716,1.975-5.666,5.666Z" transform="translate(-135.599 -184.12)"/>
      <path id="Path_21" data-name="Path 21" class="cls-20" d="M173.35,260.411l-.9,3.856,1.717.858-1.717,1.975,5.666,5.666Z" transform="translate(-121.925 -184.12)"/>
      <path id="Path_22" data-name="Path 22" class="cls-17" d="M189.237,269.908l-1.2,2.834h-1.2l-1.2-2.834Z" transform="translate(-131.248 -190.835)"/>
      <path id="Path_23" data-name="Path 23" class="cls-21" d="M193.182,269.908h-1.971v2.834h.769Z" transform="translate(-135.193 -190.835)"/>
      <path id="Path_24" data-name="Path 24" class="cls-22" d="M194.618,263.065l1.928-3.856-1.494-.5-3.267,3.266Z" transform="translate(-135.599 -182.919)"/>
      <path id="Path_25" data-name="Path 25" class="cls-11" d="M177.462,263.065l-1.928-3.856,1.494-.5,3.267,3.266Z" transform="translate(-124.109 -182.919)"/>
    </g>
  </g>
</svg>
