<svg xmlns="http://www.w3.org/2000/svg" xmlns:xlink="http://www.w3.org/1999/xlink" viewBox="-78 84 190 150">
  <defs>
    <style>
      .cls-1 {
        clip-path: url(#clip-Comisiones);
      }

      .cls-2 {
        fill: #396;
      }

      .cls-3 {
        fill: #435056;
        opacity: 0.2;
      }

      .cls-4 {
        fill: #fff;
      }

      .cls-5 {
        fill: #e9eff4;
      }

      .cls-6 {
        fill: #ffc61b;
      }

      .cls-7 {
        fill: #eaa22f;
      }

      .cls-8 {
        fill: #b97850;
      }

      .cls-9 {
        fill: #9a4f03;
      }
    </style>
    <clipPath id="clip-Comisiones">
      <rect x="-78" y="84" width="190" height="150"/>
    </clipPath>
  </defs>
  <g id="Comisiones" class="cls-1">
    <rect class="cls-4" x="-78" y="84" width="190" height="150"/>
    <g id="_002-ganancias" data-name="002-ganancias" transform="translate(-58 84.001)">
      <circle id="Ellipse_2" data-name="Ellipse 2" class="cls-2" cx="75" cy="75" r="75"/>
      <path id="Path_26" data-name="Path 26" class="cls-3" d="M201.814,202.133a75.114,75.114,0,0,0,52.61-56.9l-42.272-42.272L196.531,96.32l-5.368,5.368L175.548,86.074,160.936,77.9l-11.072,11.52,13.755,13.755-1.946,58.821Z" transform="translate(-105.959 -55.075)"/>
      <path id="Path_27" data-name="Path 27" class="cls-4" d="M298.87,134.879l-11.3-11.187a2.273,2.273,0,0,0-3.214.016l-11.187,11.3a2.272,2.272,0,1,0,3.229,3.2l7.3-7.374v41.648a2.273,2.273,0,1,0,4.546,0v-41.72l7.425,7.351a2.272,2.272,0,1,0,3.2-3.23Z" transform="translate(-192.676 -86.989)"/>
      <path id="Path_28" data-name="Path 28" class="cls-5" d="M331.277,134.882l-11.3-11.187a2.265,2.265,0,0,0-1.63-.656v51.712c.011,0,.021,0,.032,0a2.273,2.273,0,0,0,2.273-2.273v-41.72l7.425,7.351a2.273,2.273,0,0,0,3.2-3.23Z" transform="translate(-225.083 -86.993)"/>
      <path id="Path_29" data-name="Path 29" class="cls-4" d="M173.925,77.228l-11.3-11.187a2.273,2.273,0,0,0-3.214.016l-11.187,11.3a2.272,2.272,0,1,0,3.229,3.2l7.3-7.374,0,58.538a2.273,2.273,0,1,0,4.546,0l0-58.611,7.425,7.351a2.272,2.272,0,1,0,3.2-3.23Z" transform="translate(-104.335 -46.228)"/>
      <path id="Path_30" data-name="Path 30" class="cls-5" d="M206.612,77.249l-11.3-11.187a2.255,2.255,0,0,0-1.514-.649V134a2.268,2.268,0,0,0,2.188-2.264l0-58.611,7.425,7.351a2.273,2.273,0,1,0,3.2-3.23Z" transform="translate(-137.022 -46.249)"/>
      <circle id="Ellipse_3" data-name="Ellipse 3" class="cls-6" cx="26.068" cy="26.068" r="26.068" transform="translate(48.926 63.305)"/>
      <path id="Path_31" data-name="Path 31" class="cls-7" d="M255.895,216.078h-.037v52.135h.037a26.068,26.068,0,1,0,0-52.137Z" transform="translate(-180.9 -152.774)"/>
      <path id="Path_32" data-name="Path 32" class="cls-8" d="M238.566,254.718a2.021,2.021,0,0,0,2.02-2.02v-1.38c0-4.184-3.956-7.594-8.874-7.727v-.527a2.02,2.02,0,0,0-4.041,0v.527c-4.919.133-8.874,3.543-8.874,7.727v2.761c0,4.183,3.956,7.593,8.874,7.726v10.16c-2.648-.115-4.834-1.754-4.834-3.687V266.9a2.02,2.02,0,1,0-4.041,0v1.38c0,4.183,3.956,7.593,8.874,7.726v.528a2.02,2.02,0,1,0,4.041,0V276c4.919-.133,8.874-3.543,8.874-7.726v-2.761c0-4.184-3.956-7.594-8.874-7.727V247.63c2.648.115,4.834,1.755,4.834,3.688v1.38A2.02,2.02,0,0,0,238.566,254.718Zm-15.729-.64v-2.761c0-1.933,2.185-3.573,4.834-3.688v10.136C225.023,257.651,222.837,256.012,222.837,254.078Zm13.709,11.438v2.761c0,1.933-2.185,3.573-4.834,3.687V261.828C234.36,261.944,236.546,263.583,236.546,265.516Z" transform="translate(-154.697 -170.425)"/>
      <path id="Path_33" data-name="Path 33" class="cls-9" d="M264.769,254.718a2.021,2.021,0,0,0,2.02-2.02v-1.38c0-4.184-3.956-7.594-8.874-7.727v-.527a2.021,2.021,0,0,0-2.02-2.02c-.013,0-.024,0-.037,0v37.5c.013,0,.024,0,.037,0a2.02,2.02,0,0,0,2.02-2.02V276c4.919-.133,8.874-3.543,8.874-7.726v-2.761c0-4.184-3.956-7.594-8.874-7.727V247.63c2.648.115,4.834,1.755,4.834,3.688v1.38A2.02,2.02,0,0,0,264.769,254.718Zm-2.02,10.8v2.761c0,1.933-2.185,3.573-4.834,3.687V261.828C260.564,261.944,262.749,263.583,262.749,265.516Z" transform="translate(-180.9 -170.425)"/>
    </g>
  </g>
</svg>
