<svg id="7c9409c5-7393-422c-8db6-937e89278506" data-name="Layer 1" xmlns="http://www.w3.org/2000/svg" xmlns:xlink="http://www.w3.org/1999/xlink" viewBox="0 0 172 136"><defs><style>.\32 39766d1-bb88-488c-bf69-14ec6db43a30,.\33 1287017-8c00-433d-a888-bea7c46e7b7d,.\35 ccf934a-4dad-443f-8471-a109b40b4536,.\37 453fd95-3ef1-4b57-a754-2a5c8dd6e06c,.\38 1930b4f-123d-4e00-912a-c62b2a6b5289,.a4dccff2-3b89-4869-8439-6ef69b07284a,.a5512a08-a75c-44f2-a77d-9c16be39d9a7,.e128c3bd-ab8a-457d-a153-b26b593b5ace{fill:none}.\33 12b45ce-4b30-4e6e-8297-26b6bab434a0,.\38 8107d5d-8af7-4723-bb6a-4f34fa0dde87,.f5d7b17d-3ae0-4f5b-aaae-a67ab0c64358{fill:#fff}.\32 39766d1-bb88-488c-bf69-14ec6db43a30,.\33 12b45ce-4b30-4e6e-8297-26b6bab434a0,.\35 ccf934a-4dad-443f-8471-a109b40b4536,.\37 453fd95-3ef1-4b57-a754-2a5c8dd6e06c,.\38 1930b4f-123d-4e00-912a-c62b2a6b5289,.a4dccff2-3b89-4869-8439-6ef69b07284a,.a5512a08-a75c-44f2-a77d-9c16be39d9a7,.f5d7b17d-3ae0-4f5b-aaae-a67ab0c64358{stroke:#3bd0d6}.\33 12b45ce-4b30-4e6e-8297-26b6bab434a0,.\37 453fd95-3ef1-4b57-a754-2a5c8dd6e06c,.a5512a08-a75c-44f2-a77d-9c16be39d9a7,.f5d7b17d-3ae0-4f5b-aaae-a67ab0c64358{stroke-miterlimit:10}.\32 39766d1-bb88-488c-bf69-14ec6db43a30,.\35 ccf934a-4dad-443f-8471-a109b40b4536,.\37 453fd95-3ef1-4b57-a754-2a5c8dd6e06c,.\38 1930b4f-123d-4e00-912a-c62b2a6b5289,.e128c3bd-ab8a-457d-a153-b26b593b5ace{stroke-linecap:round}.\32 39766d1-bb88-488c-bf69-14ec6db43a30,.\35 ccf934a-4dad-443f-8471-a109b40b4536,.\38 1930b4f-123d-4e00-912a-c62b2a6b5289,.e128c3bd-ab8a-457d-a153-b26b593b5ace{stroke-linejoin:round}.deb1b3b7-106a-4194-99d1-52d90c395e27{clip-path:url(#26fd0df1-865d-4571-a6bc-58b0b38e2160)}.\32 3dc087b-ea77-4fef-9dac-d7d39a5442ab,.\34 bbe3795-10ff-449a-ab0f-b0ae30695d60,.\36 6b557b2-26eb-43d0-89eb-c92dacdf42d5,.\37 2b4bf86-85be-4c67-a693-f1a4cd313dde,.\37 8f656ab-aa58-4b47-876e-231479221c54,.\37 ef18d6b-e6fb-4ee4-a458-bebd4f2dcada,.\38 754eb60-ebd9-4629-9293-5041f2d97e97,.\38 cc38c3c-03ae-4571-ae3f-3f7ee53436d8,.b41f4914-0616-4cfa-9518-7c76c17ed8ae{fill:#3bd0d6}.\38 754eb60-ebd9-4629-9293-5041f2d97e97{fill-opacity:.1}.\34 bbe3795-10ff-449a-ab0f-b0ae30695d60{fill-opacity:.3}.\38 cc38c3c-03ae-4571-ae3f-3f7ee53436d8{fill-opacity:.6}.b67725ea-7b8a-4c7d-a85e-edf0b9513028{clip-path:url(#4a372ddf-4964-48c8-8d32-73ffd2610dd9)}.\31 6e849cb-163e-4be6-a97b-a359d96401cf{clip-path:url(#c1f68216-6203-46fb-878a-4c2f2a1b23f3)}.a7c39528-b176-4112-83c2-b9a274a79950{clip-path:url(#14609841-89bb-4eeb-b323-ed787634c822)}.\33 2bf2613-bcf7-4886-9db9-4e6a682189d4{clip-path:url(#a432b0bc-8755-4ab4-94c0-006938f295eb)}.\37 c66232e-f398-49fe-8657-1ced763ceede{clip-path:url(#e6c3f969-cd83-4498-ab46-05d9c15d70d7)}.\31 4fec366-330a-4e9c-9cdb-9b4584136831{clip-path:url(#03e2c83d-e699-4577-97fc-03cfa760af00)}.aa723990-1db4-4cfe-a6d7-f7684ec243b4{clip-path:url(#3694d28c-3647-4a80-a7f1-e48090f9eac5)}.\34 fdbf6af-905c-4506-af5d-c9556660fd40{clip-path:url(#a0468500-5662-45db-b2ed-16210d87c626)}.a0048383-f051-4d7c-b79d-d5d391332167{clip-path:url(#852b3af7-7d50-43b4-bf5e-d854f090dd37)}.e128c3bd-ab8a-457d-a153-b26b593b5ace{stroke:#1b1b1b;stroke-width:3px}.\31 89c463c-b420-4443-9e50-ebdccd15273f,.dfb0e093-f768-4801-9d48-9f17ab86da34,.e128c3bd-ab8a-457d-a153-b26b593b5ace{opacity:.1}.\31 89c463c-b420-4443-9e50-ebdccd15273f,.\32 39766d1-bb88-488c-bf69-14ec6db43a30,.\32 3dc087b-ea77-4fef-9dac-d7d39a5442ab,.\33 4ccc2c9-5054-479b-8418-66b1f63e0eee,.\36 6b557b2-26eb-43d0-89eb-c92dacdf42d5,.\37 2b4bf86-85be-4c67-a693-f1a4cd313dde,.\37 ef18d6b-e6fb-4ee4-a458-bebd4f2dcada,.\38 1930b4f-123d-4e00-912a-c62b2a6b5289,.a4dccff2-3b89-4869-8439-6ef69b07284a,.b41f4914-0616-4cfa-9518-7c76c17ed8ae,.e128c3bd-ab8a-457d-a153-b26b593b5ace{isolation:isolate}.\38 1930b4f-123d-4e00-912a-c62b2a6b5289,.\38 d13eef7-3a29-4c79-97d6-cee2765eff20{opacity:.6}.a631471c-0b4f-4578-9d5a-9ef57194caf4{clip-path:url(#3b4aa637-a11d-435d-abb3-d8e9bf5f38e6)}.\34 a37c675-f96e-46d1-95f9-7bbd54ab40b1{clip-path:url(#20241e74-af0e-4fe3-b03f-d49ef62efefc)}.\36 6b557b2-26eb-43d0-89eb-c92dacdf42d5{opacity:.5}.a6c1b2ea-de1e-4e08-8baf-ba6f28c6f27e{clip-path:url(#3768462e-53a7-4184-a2cd-19df82a13608)}.\33 5017724-3abb-46ef-a77e-ebdade7c1e70{clip-path:url(#b291768d-4e94-42d3-b092-acd1f7f0efde)}.f832d992-7c95-4845-a33f-248b86f5475d{clip-path:url(#9439275e-a622-4cb9-9c64-dc61cb53b2e0)}.d410c500-9568-4587-ab51-808c655c0c95{clip-path:url(#1cfb8c3a-2dbf-4fa8-92c5-f8efc3b8ac7b)}.\31 89c463c-b420-4443-9e50-ebdccd15273f{fill:#1b1b1b}.a4dccff2-3b89-4869-8439-6ef69b07284a{stroke-miterlimit:3;opacity:.3}.\30 393670e-de0c-4b12-b835-e47652f27f29{opacity:.4}.\30 018364e-1bf0-4fb5-9383-453710f9fbda,.\32 39766d1-bb88-488c-bf69-14ec6db43a30{opacity:.2}.\33 12b45ce-4b30-4e6e-8297-26b6bab434a0{fill-opacity:.8}.\37 2b4bf86-85be-4c67-a693-f1a4cd313dde{opacity:.8}.\32 3dc087b-ea77-4fef-9dac-d7d39a5442ab,.\37 ef18d6b-e6fb-4ee4-a458-bebd4f2dcada,.b41f4914-0616-4cfa-9518-7c76c17ed8ae{font-size:7px;font-family:Calibre-Medium,Calibre}.\37 ef18d6b-e6fb-4ee4-a458-bebd4f2dcada{letter-spacing:.01em}.\32 3dc087b-ea77-4fef-9dac-d7d39a5442ab{letter-spacing:-.01em}.\36 fde44c3-725b-443a-ab30-f61a6efd5b53{fill:url(#1baaab6e-dc70-49aa-9c75-3f1e514dc610)}.e0c18a5a-bc23-4375-b21a-1a8c68424e82{fill:url(#462cc84f-495f-45c5-af2c-0b7db7d4b2f0)}.dbfd7130-7af1-4527-8520-3af0760a0a90{fill:url(#2f9a07e1-21e1-4b43-bae8-4d413a3c8878)}.bb18395d-0c74-41f3-a93e-83e1121b81ed{fill:url(#552f2400-2175-4fa1-a773-07c3ddfd308a)}.\37 9bf473d-e689-4b49-b941-440dcf6620ab{fill:url(#9348f316-d0fc-4f34-bf11-3bc235f4994e)}.\30 5ebb043-f746-48c1-aebb-c1268c08236d{fill:url(#804addfd-aa52-49a4-938a-ed0cd54844d6)}.\30 49e1931-2eb0-4f48-8832-bfc737ff71ce{fill:url(#0629dd3a-961d-48ae-8098-c065bbb1a5f4)}</style><clipPath id="26fd0df1-865d-4571-a6bc-58b0b38e2160"><circle class="31287017-8c00-433d-a888-bea7c46e7b7d" cx="75.563" cy="63.099" r="4.38" transform="rotate(-21.75 75.562 63.098)"></circle></clipPath><clipPath id="4a372ddf-4964-48c8-8d32-73ffd2610dd9"><circle class="31287017-8c00-433d-a888-bea7c46e7b7d" cx="80.365" cy="75.114" r="4.38" transform="rotate(-21.75 80.364 75.114)"></circle></clipPath><clipPath id="c1f68216-6203-46fb-878a-4c2f2a1b23f3"><circle class="31287017-8c00-433d-a888-bea7c46e7b7d" cx="60.806" cy="68.989" r="4.38" transform="rotate(-21.75 60.808 68.988)"></circle></clipPath><clipPath id="14609841-89bb-4eeb-b323-ed787634c822"><circle class="31287017-8c00-433d-a888-bea7c46e7b7d" cx="65.609" cy="81.004" r="4.38" transform="rotate(-21.75 65.61 81.004)"></circle></clipPath><clipPath id="a432b0bc-8755-4ab4-94c0-006938f295eb"><circle class="31287017-8c00-433d-a888-bea7c46e7b7d" cx="70.392" cy="93.024" r="4.38" transform="rotate(-21.75 70.393 93.023)"></circle></clipPath><clipPath id="e6c3f969-cd83-4498-ab46-05d9c15d70d7"><circle class="31287017-8c00-433d-a888-bea7c46e7b7d" cx="55.819" cy="56.484" r="4.38" transform="rotate(-21.75 55.818 56.484)"></circle></clipPath><clipPath id="03e2c83d-e699-4577-97fc-03cfa760af00"><circle class="31287017-8c00-433d-a888-bea7c46e7b7d" cx="51.027" cy="44.468" r="4.38" transform="rotate(-21.75 51.027 44.467)"></circle></clipPath><clipPath id="3694d28c-3647-4a80-a7f1-e48090f9eac5"><circle class="31287017-8c00-433d-a888-bea7c46e7b7d" cx="70.576" cy="50.594" r="4.38" transform="rotate(-21.75 70.575 50.595)"></circle></clipPath><clipPath id="a0468500-5662-45db-b2ed-16210d87c626"><circle class="31287017-8c00-433d-a888-bea7c46e7b7d" cx="65.783" cy="38.578" r="4.38" transform="rotate(-21.75 65.784 38.577)"></circle></clipPath><clipPath id="852b3af7-7d50-43b4-bf5e-d854f090dd37"><circle class="31287017-8c00-433d-a888-bea7c46e7b7d" cx="60.99" cy="26.559" r="4.38" transform="rotate(-21.75 60.99 26.56)"></circle></clipPath><clipPath id="3b4aa637-a11d-435d-abb3-d8e9bf5f38e6"><path class="31287017-8c00-433d-a888-bea7c46e7b7d" transform="rotate(-10.09 75.057 41.599)" d="M44.027 23.356h62.06v36.48h-62.06z"></path></clipPath><clipPath id="20241e74-af0e-4fe3-b03f-d49ef62efefc"><path class="31287017-8c00-433d-a888-bea7c46e7b7d" transform="rotate(-10.09 81.448 77.5)" d="M50.42 59.258h62.06v36.48H50.42z"></path></clipPath><clipPath id="3768462e-53a7-4184-a2cd-19df82a13608"><path class="31287017-8c00-433d-a888-bea7c46e7b7d" transform="rotate(-88.95 85.255 42.595)" d="M67.015 11.565h36.48v62.06h-36.48z"></path></clipPath><clipPath id="b291768d-4e94-42d3-b092-acd1f7f0efde"><path class="31287017-8c00-433d-a888-bea7c46e7b7d" transform="rotate(-88.97 84.58 79.054)" d="M66.367 48.037h36.48v62.06h-36.48z"></path></clipPath><clipPath id="9439275e-a622-4cb9-9c64-dc61cb53b2e0"><path class="31287017-8c00-433d-a888-bea7c46e7b7d" transform="rotate(-82.32 100.113 43.698)" d="M81.873 12.668h36.48v62.06h-36.48z"></path></clipPath><clipPath id="1cfb8c3a-2dbf-4fa8-92c5-f8efc3b8ac7b"><path class="31287017-8c00-433d-a888-bea7c46e7b7d" transform="rotate(-82.32 95.244 79.817)" d="M77.004 48.787h36.48v62.06h-36.48z"></path></clipPath><linearGradient id="1baaab6e-dc70-49aa-9c75-3f1e514dc610" x1="122.345" y1="112.69" x2="122.345" y2="25.35" gradientTransform="matrix(1 0 0 -1 0 136)" gradientUnits="userSpaceOnUse"><stop offset="0" stop-color="#fff" stop-opacity=".1"></stop><stop offset="1" stop-color="#fff" stop-opacity=".5"></stop></linearGradient><linearGradient id="462cc84f-495f-45c5-af2c-0b7db7d4b2f0" x1="114.783" y1="112.69" x2="114.783" y2="25.35" xlink:href="#1baaab6e-dc70-49aa-9c75-3f1e514dc610"></linearGradient><linearGradient id="2f9a07e1-21e1-4b43-bae8-4d413a3c8878" x1="109.109" y1="112.69" x2="109.109" y2="25.35" xlink:href="#1baaab6e-dc70-49aa-9c75-3f1e514dc610"></linearGradient><linearGradient id="552f2400-2175-4fa1-a773-07c3ddfd308a" x1="106.159" y1="112.69" x2="106.159" y2="25.35" gradientTransform="scale(1 -1) rotate(-74.87 17.361 26.869)" xlink:href="#1baaab6e-dc70-49aa-9c75-3f1e514dc610"></linearGradient><linearGradient id="9348f316-d0fc-4f34-bf11-3bc235f4994e" x1="138.467" y1="112.69" x2="138.467" y2="25.35" gradientTransform="scale(1 -1) rotate(-74.87 49.683 18.084)" xlink:href="#1baaab6e-dc70-49aa-9c75-3f1e514dc610"></linearGradient><linearGradient id="804addfd-aa52-49a4-938a-ed0cd54844d6" x1="115.628" y1="79.638" x2="122.228" y2="69.828" gradientTransform="matrix(1 0 0 -1 0 136)" gradientUnits="userSpaceOnUse"><stop offset="0" stop-color="#fff" stop-opacity=".7"></stop><stop offset="1" stop-color="#fff"></stop></linearGradient><linearGradient id="0629dd3a-961d-48ae-8098-c065bbb1a5f4" x1="114.51" y1="68.8" x2="119.35" y2="60.48" xlink:href="#804addfd-aa52-49a4-938a-ed0cd54844d6"></linearGradient></defs><title>full-house-crop</title><g id="2bcb19db-c1b7-4ee5-8ef4-13415e2740a7" data-name="Ten"><rect class="f5d7b17d-3ae0-4f5b-aaae-a67ab0c64358" x="34.661" y="15.721" width="62.06" height="88.13" rx="2" ry="2" transform="rotate(-21.75 65.69 59.787)"></rect><ellipse class="5ccf934a-4dad-443f-8471-a109b40b4536" cx="95.937" cy="85.776" rx="3.15" ry="4.06" transform="rotate(-21.75 95.938 85.776)"></ellipse><path class="5ccf934a-4dad-443f-8471-a109b40b4536" d="M99.83 79.85l3 7.54 1.73-2.32"></path><ellipse class="5ccf934a-4dad-443f-8471-a109b40b4536" cx="35.584" cy="33.51" rx="3.15" ry="4.06" transform="rotate(-21.75 35.585 33.51)"></ellipse><path class="5ccf934a-4dad-443f-8471-a109b40b4536" d="M31.68 39.44l-3-7.54-1.72 2.31"></path><g class="deb1b3b7-106a-4194-99d1-52d90c395e27"><path class="8754eb60-ebd9-4629-9293-5041f2d97e97" transform="rotate(-21.75 76.312 63.997)" d="M70.743 59.367h11.14v9.26h-11.14z"></path><path class="4bbe3795-10ff-449a-ab0f-b0ae30695d60" d="M82.54 64.63c-7.11 2.83-6.15-.91-11.48 1.21l-2.13-5.35 10.32-4.12z"></path><path class="4bbe3795-10ff-449a-ab0f-b0ae30695d60" d="M68.1 65.18c5 1 8.77-1 11.82-4.71l-3.72-9.34-11.82 4.71z"></path><path class="8cc38c3c-03ae-4571-ae3f-3f7ee53436d8" d="M79.85 57.85c-3.6 1.44-6.71 6.4-9.06 7.34l-6.73-16.88 10.32-4.11z"></path></g><g class="b67725ea-7b8a-4c7d-a85e-edf0b9513028"><path class="8754eb60-ebd9-4629-9293-5041f2d97e97" transform="rotate(-21.75 80.94 75.614)" d="M75.369 70.984h11.14v9.26h-11.14z"></path><path class="4bbe3795-10ff-449a-ab0f-b0ae30695d60" d="M76.85 80.36c7.11-2.83 3.83-4.89 9.16-7L83.88 68l-10.32 4.12z"></path><path class="4bbe3795-10ff-449a-ab0f-b0ae30695d60" d="M72.74 76.8c5 1 8.77-1 11.82-4.71l-3.73-9.34L69 67.46z"></path><path class="8cc38c3c-03ae-4571-ae3f-3f7ee53436d8" d="M85.18 71.21c-3.6 1.44-7.4 4.66-9.75 5.6l-3.09-7.75 10.32-4.12z"></path></g><g class="16e849cb-163e-4be6-a97b-a359d96401cf"><path class="8754eb60-ebd9-4629-9293-5041f2d97e97" transform="rotate(-21.75 60.177 68.437)" d="M54.607 61.898h11.14v13.08h-11.14z"></path><path class="4bbe3795-10ff-449a-ab0f-b0ae30695d60" d="M56.77 74.9c7.11-2.83 3.83-4.89 9.16-7l-2.13-5.36-10.32 4.11z"></path><path class="4bbe3795-10ff-449a-ab0f-b0ae30695d60" d="M49.4 69.94c7.64 5.14 12 2.13 14.34-5.72l-10.36-26L39 44z"></path><path class="8cc38c3c-03ae-4571-ae3f-3f7ee53436d8" d="M54.25 68.58c3.6-1.44 9-.74 11.32-1.68l-5.12-12.83-10.32 4.11z"></path></g><g class="a7c39528-b176-4112-83c2-b9a274a79950"><path class="8754eb60-ebd9-4629-9293-5041f2d97e97" transform="rotate(-21.75 64.813 80.055)" d="M59.243 73.515h11.14v13.08h-11.14z"></path><path class="4bbe3795-10ff-449a-ab0f-b0ae30695d60" d="M60 83c7.11-2.83 3.83-4.89 9.16-7L67 70.67l-10.28 4.12z"></path><path class="4bbe3795-10ff-449a-ab0f-b0ae30695d60" d="M61.18 82.59c4.36.82 7.67-.9 10.35-4.13l-3.24-8.13-10.35 4.13z"></path><path class="8cc38c3c-03ae-4571-ae3f-3f7ee53436d8" d="M70.15 78.4c-3.6 1.44-7 5.63-9.37 6.57l-5.11-12.83L66 68z"></path></g><g class="32bf2613-bcf7-4886-9db9-4e6a682189d4"><path class="8754eb60-ebd9-4629-9293-5041f2d97e97" transform="rotate(-21.75 70.475 93.268)" d="M64.905 88.637h11.14v9.26h-11.14z"></path><path class="4bbe3795-10ff-449a-ab0f-b0ae30695d60" d="M66.38 98c7.11-2.83 3.83-4.89 9.16-7l-2.13-5.35-10.32 4.11z"></path><path class="4bbe3795-10ff-449a-ab0f-b0ae30695d60" d="M65.58 96a13.19 13.19 0 0 0 10.35-4.13l-2.43-6.1-10.35 4.13z"></path><path class="8cc38c3c-03ae-4571-ae3f-3f7ee53436d8" d="M65.43 95.61c3.6-1.44 8.79-1.19 11.14-2.13L72.38 83l-10.32 4.1z"></path></g><g class="7c66232e-f398-49fe-8657-1ced763ceede"><path class="8754eb60-ebd9-4629-9293-5041f2d97e97" transform="rotate(-21.75 55.072 55.594)" d="M49.501 50.964h11.14v9.26h-11.14z"></path><path class="4bbe3795-10ff-449a-ab0f-b0ae30695d60" d="M48.84 55c7.11-2.83 6.15.91 11.48-1.21l2.13 5.35-10.32 4.07z"></path><path class="4bbe3795-10ff-449a-ab0f-b0ae30695d60" d="M63.28 54.41c-5-1-8.77 1-11.82 4.71l3.73 9.34L67 63.75z"></path><path class="8cc38c3c-03ae-4571-ae3f-3f7ee53436d8" d="M51.53 61.74c3.6-1.44 6.71-6.4 9.06-7.34l6.73 16.88L57 75.39z"></path></g><g class="14fec366-330a-4e9c-9cdb-9b4584136831"><path class="8754eb60-ebd9-4629-9293-5041f2d97e97" transform="rotate(-21.75 50.426 43.982)" d="M44.857 39.351h11.14v9.26h-11.14z"></path><path class="4bbe3795-10ff-449a-ab0f-b0ae30695d60" d="M54.53 39.23c-7.11 2.83-3.83 4.89-9.16 7l2.13 5.35 10.32-4.12z"></path><path class="4bbe3795-10ff-449a-ab0f-b0ae30695d60" d="M58.64 42.79c-5-1-8.77 1-11.82 4.71l3.73 9.34 11.82-4.71z"></path><path class="8cc38c3c-03ae-4571-ae3f-3f7ee53436d8" d="M46.2 48.38c3.6-1.44 7.4-4.66 9.75-5.6L59 50.52l-10.27 4.12z"></path></g><g class="aa723990-1db4-4cfe-a6d7-f7684ec243b4"><path class="8754eb60-ebd9-4629-9293-5041f2d97e97" transform="rotate(-21.75 71.204 51.145)" d="M65.635 44.605h11.14v13.08h-11.14z"></path><path class="4bbe3795-10ff-449a-ab0f-b0ae30695d60" d="M74.61 44.69c-7.11 2.83-3.83 4.89-9.16 7l2.13 5.35 10.32-4.1z"></path><path class="4bbe3795-10ff-449a-ab0f-b0ae30695d60" d="M82 49.65c-7.64-5.14-12-2.13-14.34 5.72L78 81.35l14.34-5.72z"></path><path class="8cc38c3c-03ae-4571-ae3f-3f7ee53436d8" d="M77.13 51c-3.6 1.44-9 .74-11.32 1.68l5.12 12.83 10.32-4.12z"></path></g><g class="4fdbf6af-905c-4506-af5d-c9556660fd40"><path class="8754eb60-ebd9-4629-9293-5041f2d97e97" transform="rotate(-21.75 66.571 39.522)" d="M61.001 32.982h11.14v13.08h-11.14z"></path><path class="4bbe3795-10ff-449a-ab0f-b0ae30695d60" d="M71.37 36.56c-7.11 2.83-3.83 4.89-9.16 7l2.13 5.35 10.32-4.11z"></path><path class="4bbe3795-10ff-449a-ab0f-b0ae30695d60" d="M70.2 37c-4.36-.82-7.67.9-10.35 4.13l3.24 8.13 10.35-4.13z"></path><path class="8cc38c3c-03ae-4571-ae3f-3f7ee53436d8" d="M61.23 41.19c3.6-1.44 7-5.63 9.37-6.57l5.12 12.83-10.32 4.12z"></path></g><g class="a0048383-f051-4d7c-b79d-d5d391332167"><path class="8754eb60-ebd9-4629-9293-5041f2d97e97" transform="rotate(-21.75 60.9 26.326)" d="M55.329 21.695h11.14v9.26h-11.14z"></path><path class="4bbe3795-10ff-449a-ab0f-b0ae30695d60" d="M65 21.58c-7.11 2.83-3.83 4.89-9.16 7L58 33.94l10.32-4.12z"></path><path class="4bbe3795-10ff-449a-ab0f-b0ae30695d60" d="M65.8 23.59a13.19 13.19 0 0 0-10.35 4.13l2.43 6.1 10.35-4.13z"></path><path class="8cc38c3c-03ae-4571-ae3f-3f7ee53436d8" d="M66 24c-3.6 1.44-8.79 1.19-11.14 2.13L59 36.6l10.32-4.12z"></path></g><path class="78f656ab-aa58-4b47-876e-231479221c54" d="M38.26 48.13a2.8 2.8 0 0 1-3.16-1.81 1.42 1.42 0 0 0 2.63-1 1.49 1.49 0 0 0-.69-.75c-.94-.52-3.07-.7-3.68-2.23.61 1.53-.8 3.13-1.13 4.15a1.49 1.49 0 0 0 0 1 1.42 1.42 0 0 0 2.63-1 2.8 2.8 0 0 1-1 3.49zM98.15 68.3a2.8 2.8 0 0 0-1 3.49 1.42 1.42 0 0 1 2.63-1 1.49 1.49 0 0 1 0 1c-.33 1-1.74 2.62-1.13 4.15-.61-1.53-2.74-1.71-3.68-2.23a1.49 1.49 0 0 1-.69-.75 1.42 1.42 0 1 1 2.63-1 2.8 2.8 0 0 0-3.16-1.81z"></path></g><path class="e128c3bd-ab8a-457d-a153-b26b593b5ace" d="M40.34 23.57l12.9 73.16L53 102a2.67 2.67 0 0 0 1.51 2.53l.29.14.3 1.86a2 2 0 0 0 2.27 1.687l.1-.017 1.54-.31"></path><g id="ac1d568a-789f-4eef-a5d5-853a01ec80af" data-name="Boy"><rect class="f5d7b17d-3ae0-4f5b-aaae-a67ab0c64358" x="47.232" y="15.478" width="62.06" height="88.13" rx="2" ry="2" transform="rotate(-10.09 78.262 59.542)"></rect><g class="8d13eef7-3a29-4c79-97d6-cee2765eff20"><g class="a631471c-0b4f-4578-9d5a-9ef57194caf4"><path class="4bbe3795-10ff-449a-ab0f-b0ae30695d60" d="M43.61 42c42-7.47 32.25 10.31 63.72 4.71l5.1 28.65-61 10.85z"></path><path class="4bbe3795-10ff-449a-ab0f-b0ae30695d60" d="M45.72 53.81c18.82-13.46 39.44-15.55 61.13-10.88l6.41 36-61.13 10.92z"></path><path class="8cc38c3c-03ae-4571-ae3f-3f7ee53436d8" d="M46.13 56.13c21.29-3.79 45.11-20.21 59-22.68l11 62-61 10.85z"></path></g><g class="4a37c675-f96e-46d1-95f9-7bbd54ab40b1"><path class="4bbe3795-10ff-449a-ab0f-b0ae30695d60" d="M112.9 77.15c-42 7.47-32.25-10.31-63.72-4.71l-5.1-28.65 61-10.85z"></path><path class="4bbe3795-10ff-449a-ab0f-b0ae30695d60" d="M110.79 65.29C92 78.75 71.35 80.84 49.66 76.17l-6.41-36 61.13-10.88z"></path><path class="8cc38c3c-03ae-4571-ae3f-3f7ee53436d8" d="M110.38 63c-21.29 3.79-45.11 20.21-59 22.68l-11-62 61-10.85z"></path></g></g><path class="a5512a08-a75c-44f2-a77d-9c16be39d9a7" d="M43.83 44.6l68.85 29.9"></path><circle class="88107d5d-8af7-4723-bb6a-4f34fa0dde87" cx="78.253" cy="59.55" r="11.58" transform="rotate(-10.09 78.25 59.552)"></circle><circle class="66b557b2-26eb-43d0-89eb-c92dacdf42d5" cx="78.253" cy="59.55" r="11.58" transform="rotate(-10.09 78.25 59.552)"></circle><path class="78f656ab-aa58-4b47-876e-231479221c54" d="M53.87 43a2.8 2.8 0 0 1-2.73-2.41 1.42 1.42 0 1 0 2.79-.5 1.49 1.49 0 0 0-.52-.87c-.82-.7-2.86-1.31-3.15-2.93.29 1.62-1.42 2.9-1.95 3.84a1.49 1.49 0 0 0-.19 1 1.42 1.42 0 1 0 2.79-.5 2.8 2.8 0 0 1-1.73 3.21z"></path><path class="7453fd95-3ef1-4b57-a754-2a5c8dd6e06c" d="M47.11 30.92a2.43 2.43 0 0 0 4.78-.85l-1.1-6.18"></path><path class="88107d5d-8af7-4723-bb6a-4f34fa0dde87" d="M85 65.89c-3.55 0-5.47-2.55-6.16-5.44a3.194 3.194 0 1 0 6.29-1.12 3.35 3.35 0 0 0-1.18-2c-1.85-1.57-6.45-2.95-7.1-6.6.65 3.65-3.2 6.53-4.39 8.65a3.35 3.35 0 0 0-.46 2.28 3.194 3.194 0 1 0 6.29-1.12c.35 2.94-.58 6-3.9 7.23z"></path><path class="7453fd95-3ef1-4b57-a754-2a5c8dd6e06c" d="M109.4 88.18a2.43 2.43 0 1 0-4.819.633q.014.109.039.217l1.1 6.18"></path></g><path class="e128c3bd-ab8a-457d-a153-b26b593b5ace" d="M54.5 20.78l-1 65.83"></path><g id="d647f605-cb09-4cd9-8cae-0c0f5baf113f" data-name="Queen"><rect class="f5d7b17d-3ae0-4f5b-aaae-a67ab0c64358" x="40.866" y="29.801" width="88.13" height="62.06" rx="2" ry="2" transform="rotate(-88.95 84.931 60.83)"></rect><g class="8d13eef7-3a29-4c79-97d6-cee2765eff20"><g class="a6c1b2ea-de1e-4e08-8baf-ba6f28c6f27e"><path class="4bbe3795-10ff-449a-ab0f-b0ae30695d60" d="M116.62 24.93C74 24.15 86.18 52 54.21 51.4l-.94 50.85 61.9 1.14z"></path><path class="4bbe3795-10ff-449a-ab0f-b0ae30695d60" d="M116.15 50.69c-28.7-.53-33.58-7.45-61.92-8l-1.13 59.52 62.08 1.14z"></path><path class="8cc38c3c-03ae-4571-ae3f-3f7ee53436d8" d="M54 56.27c21.62.4 48.44-26.12 62.54-25.86l-1.34 73-61.9-1.14z"></path></g><g class="35017724-3abb-46ef-a77e-ebdade7c1e70"><path class="4bbe3795-10ff-449a-ab0f-b0ae30695d60" d="M53.24 96.73c42.63.78 30.44-27.05 62.41-26.47l.94-50.85-61.9-1.14z"></path><path class="4bbe3795-10ff-449a-ab0f-b0ae30695d60" d="M53.71 71c28.7.53 33.58 7.45 61.92 8l1.13-59.52-62.08-1.2z"></path><path class="8cc38c3c-03ae-4571-ae3f-3f7ee53436d8" d="M115.88 65.4C94.26 65 67.44 91.52 53.34 91.26l1.34-73 61.9 1.14z"></path></g></g><path class="a5512a08-a75c-44f2-a77d-9c16be39d9a7" d="M54.04 39.51l61.78 42.64"></path><circle class="88107d5d-8af7-4723-bb6a-4f34fa0dde87" cx="84.926" cy="60.829" r="11.58" transform="rotate(-88.95 84.926 60.829)"></circle><circle class="66b557b2-26eb-43d0-89eb-c92dacdf42d5" cx="84.926" cy="60.829" r="11.58" transform="rotate(-88.95 84.926 60.829)"></circle><path class="78f656ab-aa58-4b47-876e-231479221c54" d="M58.76 38.84A2.8 2.8 0 0 0 61.08 36a1.42 1.42 0 0 1-2.84 0 1.49 1.49 0 0 1 .38-.94c.7-.82 2.62-1.74 2.65-3.39 0 1.65 1.86 2.64 2.53 3.48a1.49 1.49 0 0 1 .35 1 1.42 1.42 0 0 1-2.83-.15 2.8 2.8 0 0 0 2.21 2.9z"></path><circle class="a5512a08-a75c-44f2-a77d-9c16be39d9a7" cx="62.297" cy="25.162" r="3.83" transform="rotate(-88.95 62.297 25.161)"></circle><path class="5ccf934a-4dad-443f-8471-a109b40b4536" d="M63.81 27.77l1.31 1.68"></path><path class="88107d5d-8af7-4723-bb6a-4f34fa0dde87" d="M90.29 68.35c-3.48-.71-4.88-3.56-5-6.53a3.191 3.191 0 1 0 6.38.12 3.35 3.35 0 0 0-.78-2.15c-1.51-1.9-5.76-4.14-5.69-7.85-.07 3.71-4.4 5.79-6 7.63a3.35 3.35 0 0 0-.86 2.12 3.191 3.191 0 0 0 6.38.12c-.22 3-1.72 5.76-5.23 6.34z"></path><circle class="a5512a08-a75c-44f2-a77d-9c16be39d9a7" cx="107.741" cy="96.64" r="3.831" transform="rotate(-88.854 107.741 96.64)"></circle><path class="5ccf934a-4dad-443f-8471-a109b40b4536" d="M106.04 93.89l-1.3-1.67"></path></g><path class="e128c3bd-ab8a-457d-a153-b26b593b5ace" d="M72.5 17.94l-11.32 82.12a2 2 0 0 0 1.68 2.25l5.14.64"></path><g id="be8da245-1578-4f7b-a35d-c44b7a3a7208" data-name="Ass"><rect class="f5d7b17d-3ae0-4f5b-aaae-a67ab0c64358" x="53.701" y="31.102" width="87.998" height="61.967" rx="1.997" ry="1.997" transform="rotate(-82.519 97.7 62.085)"></rect><g class="8d13eef7-3a29-4c79-97d6-cee2765eff20"><g class="f832d992-7c95-4845-a33f-248b86f5475d"><path class="4bbe3795-10ff-449a-ab0f-b0ae30695d60" d="M71.8 21.47c42.25 5.69 26 31.36 57.67 35.63l-6.79 50.4-61.36-8.27z"></path><path class="4bbe3795-10ff-449a-ab0f-b0ae30695d60" d="M68.73 44.25c22.71-12.15 42.88-7.06 61.54 8.29l-7.41 55-61.54-8.31z"></path><path class="8cc38c3c-03ae-4571-ae3f-3f7ee53436d8" d="M67.46 53.66c21.43 2.89 51.13-20.36 65.11-18.48l-9.75 72.34-61.35-8.27z"></path></g><g class="d410c500-9568-4587-ab51-808c655c0c95"><path class="4bbe3795-10ff-449a-ab0f-b0ae30695d60" d="M123.56 102.05c-42.25-5.69-26-31.36-57.67-35.63L72.68 16 134 24.29z"></path><path class="4bbe3795-10ff-449a-ab0f-b0ae30695d60" d="M126.63 79.27C103.92 91.42 83.75 86.33 65.09 71l7.41-55 61.5 8.29z"></path><path class="8cc38c3c-03ae-4571-ae3f-3f7ee53436d8" d="M127.9 69.86C106.46 67 76.77 90.22 62.79 88.34L72.54 16l61.36 8.27z"></path></g></g><path class="a5512a08-a75c-44f2-a77d-9c16be39d9a7" d="M69.35 37.76l56.46 49.47"></path><circle class="88107d5d-8af7-4723-bb6a-4f34fa0dde87" cx="97.58" cy="62.496" r="11.58" transform="rotate(-82.32 97.58 62.496)"></circle><circle class="66b557b2-26eb-43d0-89eb-c92dacdf42d5" cx="97.58" cy="62.496" r="11.58" transform="rotate(-82.32 97.58 62.496)"></circle><path class="5ccf934a-4dad-443f-8471-a109b40b4536" d="M75.61 28.04l4.18-7.37 2.08 8.21m-4.72-3.18l3.86.52"></path><path class="88107d5d-8af7-4723-bb6a-4f34fa0dde87" d="M102 70.58c-3.38-1.11-4.43-4.1-4.2-7.06a3.193 3.193 0 0 0 6.33.85 3.35 3.35 0 0 0-.53-2.23c-1.28-2.06-5.25-4.77-4.75-8.45-.5 3.68-5 5.25-6.82 6.89a3.35 3.35 0 0 0-1.1 2 3.193 3.193 0 0 0 6.33.85c-.56 2.91-2.37 5.52-5.92 5.69z"></path><path class="5ccf934a-4dad-443f-8471-a109b40b4536" d="M119.55 96.95l-4.18 7.37-2.07-8.22m4.72 3.19l-3.86-.52"></path><path class="78f656ab-aa58-4b47-876e-231479221c54" d="M73.91 37.54A2.8 2.8 0 0 0 76.53 35a1.42 1.42 0 0 1-2.81-.38 1.49 1.49 0 0 1 .49-.89c.79-.73 2.81-1.43 3-3.06-.22 1.63 1.54 2.84 2.11 3.75a1.49 1.49 0 0 1 .23 1 1.42 1.42 0 1 1-2.78-.42 2.8 2.8 0 0 0 1.87 3.13z"></path></g><path class="189c463c-b420-4443-9e50-ebdccd15273f" d="M92.45 18.33l-1.2 4.51L88 34.73c-1.32 4.92-2.94 10.64-4.65 16.78S79.86 64.19 78 70.71l-5.56 19.18-2.54 8.83c-.1.35-.07.28-.07.39a.46.46 0 0 0 .1.22.44.44 0 0 0 .2.14h.06l.25.07.5.13c1.33.34 2.6.75 3.81 1.16 2.42.82 4.62 1.66 6.61 2.26a40.27 40.27 0 0 0 5.21 1.28c1.47.25 2.62.48 3.4.63a9.821 9.821 0 0 1 1.19.29.782.782 0 0 1-.37 1.52s-.42-.09-1.19-.29-1.89-.54-3.31-1a40.26 40.26 0 0 0-5.22-1.23c-2-.37-4.38-.63-6.91-1-1.26-.19-2.58-.4-3.92-.7l-.51-.11-.25-.05h-.37a3.53 3.53 0 0 1-2.33-2.73 3.44 3.44 0 0 1 0-1v-.44l.05-.21v-.13L69.35 89l5.29-19.25c1.78-6.53 3.67-13.05 5.36-19.19s3.33-11.86 4.77-16.74L88.23 22l1.33-4.48a1.5 1.5 0 1 1 2.89.81z"></path><path id="4f866a81-823d-4d51-b02d-b56f9ec50a29" data-name="heart" class="a4dccff2-3b89-4869-8439-6ef69b07284a heartbeat" d="M29.13 88.8h-.06a11.61 11.61 0 0 1-1.62-1.2 4.1 4.1 0 0 1-1.63-2.83A1.7 1.7 0 0 1 27.448 83h.032a1.78 1.78 0 0 1 1.65 1 1.77 1.77 0 0 1 1.65-1 1.7 1.7 0 0 1 1.661 1.738v.032a4 4 0 0 1-1.64 2.82 10.4 10.4 0 0 1-1.61 1.2z"></path><path class="a4dccff2-3b89-4869-8439-6ef69b07284a" d="M161.33 46.35h-.06a11.61 11.61 0 0 1-1.62-1.2 4.1 4.1 0 0 1-1.65-2.86 1.7 1.7 0 0 1 1.628-1.769h.032a1.78 1.78 0 0 1 1.65 1 1.77 1.77 0 0 1 1.65-1 1.7 1.7 0 0 1 1.661 1.738v.032A4 4 0 0 1 163 45.11a10.4 10.4 0 0 1-1.61 1.2z"></path><g class="0393670e-de0c-4b12-b835-e47652f27f29"><path class="5ccf934a-4dad-443f-8471-a109b40b4536" d="M151.19 69.99l3.43-4.81m-4.12.69l4.81 3.43"></path></g><g class="0393670e-de0c-4b12-b835-e47652f27f29"><path class="5ccf934a-4dad-443f-8471-a109b40b4536" d="M40.94 16.93l-.22-5.9m-2.84 3.06l5.9-.22"></path></g><circle class="81930b4f-123d-4e00-912a-c62b2a6b5289" cx="21.42" cy="65.94" r="1"></circle><circle class="239766d1-bb88-488c-bf69-14ec6db43a30" cx="84.42" cy="109.94" r="1"></circle><g id="42f7a298-ac7b-4c5a-ad75-7a6931633a4d" data-name="card"><rect class="312b45ce-4b30-4e6e-8297-26b6bab434a0" x="65.452" y="35.229" width="88.13" height="62.06" rx="2" ry="2" transform="rotate(-74.88 109.517 66.259)"></rect><path class="78f656ab-aa58-4b47-876e-231479221c54" d="M105.63 19.57L89.71 78.5a7.35 7.35 0 0 1 5.17 9L92 98.14a7.35 7.35 0 0 1-9 5.17l-.36 1.32L126 116.36a2 2 0 0 0 2.493-1.336l.007-.024 21.94-81.22a2 2 0 0 0-1.362-2.479L149 31.28z"></path><path class="88107d5d-8af7-4723-bb6a-4f34fa0dde87" d="M88.94 95.41a5.42 5.42 0 0 0-.4-3.84 5.47 5.47 0 1 0-7.88-2.13 5.46 5.46 0 1 0 8.28 6z"></path><circle class="66b557b2-26eb-43d0-89eb-c92dacdf42d5" cx="85.872" cy="86.554" r="5.493" transform="rotate(-74.995 85.872 86.554)"></circle><circle class="72b4bf86-85be-4c67-a693-f1a4cd313dde" cx="83.671" cy="93.983" r="5.47" transform="rotate(-74.88 83.671 93.983)"></circle><g class="34ccc2c9-5054-479b-8418-66b1f63e0eee"><text class="b41f4914-0616-4cfa-9518-7c76c17ed8ae" transform="rotate(105.005 38.259 47.568)">1</text><text class="7ef18d6b-e6fb-4ee4-a458-bebd4f2dcada" transform="rotate(105.005 37.089 48.465)">2</text><text class="b41f4914-0616-4cfa-9518-7c76c17ed8ae" transform="rotate(105.005 35.412 49.753)">34</text><text class="7ef18d6b-e6fb-4ee4-a458-bebd4f2dcada" transform="rotate(105.005 31.204 52.98)">4</text><text class="b41f4914-0616-4cfa-9518-7c76c17ed8ae" transform="rotate(105.005 29.356 54.399)">5</text><text class="b41f4914-0616-4cfa-9518-7c76c17ed8ae" transform="rotate(105.005 27.689 55.678)">6</text><text class="b41f4914-0616-4cfa-9518-7c76c17ed8ae" transform="rotate(105.005 25.942 57.018)">7 65</text><text class="23dc087b-ea77-4fef-9dac-d7d39a5442ab" transform="rotate(105.005 20.157 61.456)">7</text><text class="b41f4914-0616-4cfa-9518-7c76c17ed8ae" transform="rotate(105.005 18.615 62.639)">8 2</text><text class="b41f4914-0616-4cfa-9518-7c76c17ed8ae" transform="rotate(105.005 14.478 65.813)">1</text><text class="7ef18d6b-e6fb-4ee4-a458-bebd4f2dcada" transform="rotate(105.005 13.309 66.712)">2</text><text class="b41f4914-0616-4cfa-9518-7c76c17ed8ae" transform="rotate(105.005 11.631 67.998)">3</text></g><path class="6fde44c3-725b-443a-ab30-f61a6efd5b53" d="M130.4 41.24l-21.84 7.52-.62 2.3 24.06 6.5.75-2.79-18.29-4.94 21.11-7.28.54-.19.35-1.3.03-.03h-.02l.28-1.05-24.06-6.5-.75 2.78 18.46 4.98z"></path><path class="e0c18a5a-bc23-4375-b21a-1a8c68424e82" d="M112.62 72c1.41 4.91 3.18 7.17 6.27 8 4.26 1.15 7.77-1 9-5.41a8.8 8.8 0 0 0-3-9.13l-.83-.67-1.87 2.21.81.69a5.87 5.87 0 0 1 2.1 6.17c-.76 2.81-2.8 4.06-5.47 3.34-1.71-.46-3-1.62-4.3-5.92-2.27-7.69-3.67-9.63-8-11l-.78-.25-1-.28-4.17 15.43 2.78.75 3.39-12.54c2.19.84 3.2 2.16 5.07 8.61z"></path><path class="dbfd7130-7af1-4527-8520-3af0760a0a90" d="M112.81 95.17a10.13 10.13 0 0 0-.58-6.3c5.07 1.84 7.49 4.95 6.53 8.49a6 6 0 0 1-2.82 3.77l-.89.6 1.66 2.4.88-.62a9.11 9.11 0 0 0 3.92-5.42c1.49-5.63-2.51-10.46-10.39-12.6-8.9-2.41-13.28 1.15-14.39 5.29-1.43 5.29 2 9.18 6.12 10.29 5.75 1.56 8.96-2.22 9.96-5.9zm-9.21 3.09a5.444 5.444 0 0 1-4.12-6.73c.63-2.34 3.4-4.67 9.1-3.67a8.4 8.4 0 0 1 1.49 6.56c-1.27 4.7-4.95 4.25-6.47 3.84z"></path><path class="bb18395d-0c74-41f3-a93e-83e1121b81ed" transform="rotate(-74.88 106.163 41.14)" d="M97.028 40.075h18.27v2.13h-18.27z"></path><path class="79bf473d-e689-4b49-b941-440dcf6620ab" transform="rotate(-74.88 138.465 49.918)" d="M129.359 48.853h18.21v2.13h-18.21z"></path><path class="88107d5d-8af7-4723-bb6a-4f34fa0dde87" d="M138.06 37.83l-4.18 1.44-.13.44 4.62 1.25.14-.54-3.51-.94 4.06-1.4.1-.04.07-.24v-.01l.05-.2-4.61-1.25-.15.53 3.54.96zm-3.41 5.89c.27.94.61 1.38 1.2 1.54a1.33 1.33 0 0 0 1.72-1 1.69 1.69 0 0 0-.58-1.75l-.16-.13-.35.42.15.13a1.13 1.13 0 0 1 .4 1.18.8.8 0 0 1-1 .64c-.33-.09-.58-.31-.83-1.14-.43-1.48-.7-1.85-1.53-2.11h-.15l-.2-.05-.8 3 .53.14.65-2.4c.4.05.59.3.95 1.53zm.04 4.45a1.94 1.94 0 0 0-.11-1.21c1 .35 1.44.95 1.25 1.63a1.16 1.16 0 0 1-.54.72l-.17.12.32.46.17-.12a1.75 1.75 0 0 0 .75-1c.29-1.08-.47-2-2-2.41-1.71-.46-2.55.22-2.76 1a1.57 1.57 0 0 0 1.035 1.965q.067.021.135.035a1.48 1.48 0 0 0 1.92-1.19zm-1.77.59a1 1 0 0 1-.79-1.29c.12-.45.65-.89 1.75-.7a1.61 1.61 0 0 1 .29 1.26.93.93 0 0 1-1.25.74z"></path><path class="88107d5d-8af7-4723-bb6a-4f34fa0dde87" transform="rotate(-74.88 133.405 37.81)" d="M131.655 37.605h3.5v.41h-3.5z"></path><path class="88107d5d-8af7-4723-bb6a-4f34fa0dde87" transform="rotate(-74.88 139.612 39.5)" d="M137.868 39.295h3.49v.41h-3.49z"></path><rect class="88107d5d-8af7-4723-bb6a-4f34fa0dde87" x="116.197" y="35.009" width="11.72" height="11.38" rx="2" ry="2" transform="rotate(-74.88 122.058 40.699)"></rect><rect class="a5512a08-a75c-44f2-a77d-9c16be39d9a7" x="116.197" y="35.009" width="11.72" height="11.38" rx="2" ry="2" transform="rotate(-74.88 122.058 40.699)"></rect><g class="dfb0e093-f768-4801-9d48-9f17ab86da34"><path class="88107d5d-8af7-4723-bb6a-4f34fa0dde87" d="M117.83 39.22l.6-2.21a2 2 0 0 1 2.45-1.41l3.6 1"></path><path class="5ccf934a-4dad-443f-8471-a109b40b4536" d="M117.83 39.22l.6-2.21a2 2 0 0 1 2.45-1.41l3.6 1"></path></g><path class="239766d1-bb88-488c-bf69-14ec6db43a30" d="M143.49 59.12l-15 55.69a2 2 0 0 1-2.431 1.446l-.059-.016-19.18-5.18"></path><g class="0018364e-1bf0-4fb5-9383-453710f9fbda"><path class="05ebb043-f746-48c1-aebb-c1268c08236d" d="M145.42 52.34L91.01 83.39V74.1l57.34-32.72-2.93 10.96z"></path><path class="049e1931-2eb0-4f48-8832-bfc737ff71ce" d="M143.14 60.76L91.01 90.51v-4.65l53.62-30.59-1.49 5.49z"></path></g></g></svg>