<svg xmlns="http://www.w3.org/2000/svg" xmlns:xlink="http://www.w3.org/1999/xlink" viewBox="-345 84 190 150">
  <defs>
    <style>
      .cls-1 {
        clip-path: url(#clip-Rentabilidad);
      }

      .cls-2 {
        fill: #273b7a;
      }

      .cls-3 {
        fill: #396;
      }

      .cls-4 {
        fill: #2b3b4e;
        opacity: 0.2;
      }

      .cls-5 {
        fill: #f4e3c3;
      }

      .cls-6 {
        fill: #fed8b2;
      }

      .cls-7 {
        fill: #d35933;
      }

      .cls-8 {
        fill: #b54324;
      }

      .cls-9 {
        fill: #f9b54c;
      }

      .cls-10 {
        fill: #f4a200;
      }

      .cls-11 {
        fill: #d83e20;
      }

      .cls-12 {
        fill: #c1321f;
      }

      .cls-13 {
        fill: #fff;
      }
    </style>
    <clipPath id="clip-Rentabilidad">
      <rect x="-345" y="84" width="190" height="150"/>
    </clipPath>
  </defs>
  <g id="Rentabilidad" class="cls-1">
    <rect class="cls-13" x="-345" y="84" width="190" height="150"/>
    <g id="_003-crecimiento" data-name="003-crecimiento" transform="translate(-324.968 84)">
      <circle id="Ellipse_4" data-name="Ellipse 4" class="cls-2" cx="75" cy="75" r="75"/>
      <circle id="Ellipse_5" data-name="Ellipse 5" class="cls-3" cx="75" cy="75" r="75"/>
      <path id="Path_34" data-name="Path 34" class="cls-4" d="M225.236,155.411,178,108.175l-46.537,25.444L122.111,144.2l23.106,23.106-11.377.842-27.285,31.326,24.5,24.5a75.051,75.051,0,0,0,94.181-68.566Z" transform="translate(-75.338 -76.483)"/>
      <path id="Path_35" data-name="Path 35" class="cls-5" d="M177.776,286.6a3.683,3.683,0,0,0-4.278-1.292l-.067.024-26.256,8.741q.008.317-.013.637a6.851,6.851,0,0,1-6.144,6.384L125.2,302.741a1.821,1.821,0,1,1-.377-3.623l15.823-1.644a3.225,3.225,0,0,0-.124-6.426l-21.009-1.37a12.362,12.362,0,0,0-6.774,1.508L85.028,306.444l7.5,15.13,6.96-6.072a13.037,13.037,0,0,1,10.742-3.046l23.265,3.866a16.838,16.838,0,0,0,12.038-2.994l31.675-21.815A3.688,3.688,0,0,0,177.776,286.6Z" transform="translate(-60.117 -201.558)"/>
      <g id="Group_1" data-name="Group 1" transform="translate(75.728 83.519)">
        <path id="Path_36" data-name="Path 36" class="cls-6" d="M263.281,311.151a3.225,3.225,0,0,0-.124-6.426l-4.672-.3v7.228Z" transform="translate(-258.485 -298.753)"/>
        <path id="Path_37" data-name="Path 37" class="cls-6" d="M300.419,286.6a3.683,3.683,0,0,0-4.278-1.292l-.067.024-26.256,8.741q.008.317-.013.637a6.851,6.851,0,0,1-6.144,6.384l-5.172.537v14.836a16.825,16.825,0,0,0,9.689-3.141l31.675-21.814A3.69,3.69,0,0,0,300.419,286.6Z" transform="translate(-258.489 -285.077)"/>
      </g>
      <path id="Path_38" data-name="Path 38" class="cls-7" d="M66.079,339.42l9.533-6.517,11.859,18.946-9.534,6.517Z" transform="translate(-46.72 -235.372)"/>
      <path id="Path_39" data-name="Path 39" class="cls-8" d="M101.681,374.39l-6.013-9.606-9.492,6.584,5.971,9.539Z" transform="translate(-60.929 -257.913)"/>
      <path id="Path_40" data-name="Path 40" class="cls-9" d="M209.767,104.008h-48.92a4.833,4.833,0,0,0-4.833,4.833v29.392a4.833,4.833,0,0,0,4.833,4.833H178.4l6.9,13.805,6.9-13.8h17.558a4.833,4.833,0,0,0,4.833-4.833V108.841A4.833,4.833,0,0,0,209.767,104.008Z" transform="translate(-110.307 -73.537)"/>
      <path id="Path_41" data-name="Path 41" class="cls-10" d="M280.358,104.008h-24.5v52.779l.042.084,6.9-13.8h17.558a4.833,4.833,0,0,0,4.833-4.833V108.841A4.833,4.833,0,0,0,280.358,104.008Z" transform="translate(-180.898 -73.537)"/>
      <path id="Path_42" data-name="Path 42" class="cls-11" d="M228.475,132.736a2.282,2.282,0,0,0-2.426-2.109l-8.313.581a2.273,2.273,0,0,0,.317,4.535l3.021-.211-11.459,11.91-6.695-6.695a2.271,2.271,0,0,0-3.214,0l-8.333,8.333a2.272,2.272,0,1,0,3.214,3.214l6.726-6.726,6.726,6.726a2.27,2.27,0,0,0,1.607.666h.022a2.273,2.273,0,0,0,1.616-.7L224.335,138.7l.186,2.668a2.273,2.273,0,0,0,2.265,2.114c.053,0,.107,0,.161-.006a2.273,2.273,0,0,0,2.108-2.426Z" transform="translate(-134.835 -92.354)"/>
      <path id="Path_43" data-name="Path 43" class="cls-12" d="M274.538,132.736a2.282,2.282,0,0,0-2.426-2.109l-8.313.581a2.273,2.273,0,1,0,.317,4.535l3.021-.211-11.28,11.724v5.69a2.264,2.264,0,0,0,1.49-.683L270.4,138.7l.186,2.668a2.273,2.273,0,0,0,2.265,2.114c.053,0,.107,0,.161-.006a2.273,2.273,0,0,0,2.109-2.426Z" transform="translate(-180.898 -92.354)"/>
    </g>
  </g>
</svg>
